{
	"asset":{
		"generator":"Khronos glTF Blender I/O v3.6.27",
		"version":"2.0"
	},
	"scene":0,
	"scenes":[
		{
			"name":"Root",
			"nodes":[
				27
			]
		}
	],
	"nodes":[
		{
			"name":"EyeMorph.L",
			"rotation":[
				8.077935669463161e-28,
				3.552713678800501e-15,
				2.0194839173657902e-28,
				1
			],
			"translation":[
				6.206391844898462e-09,
				-1.477429290019927e-13,
				-3.162862682870582e-08
			]
		},
		{
			"children":[
				0
			],
			"name":"Eye.L",
			"rotation":[
				8.077935669463161e-28,
				3.552713678800501e-15,
				2.0194839173657902e-28,
				1
			],
			"translation":[
				-0.13266009092330933,
				-1.477429290019927e-13,
				-3.162862682870582e-08
			]
		},
		{
			"name":"EyeMorph.R",
			"rotation":[
				-8.077935669463161e-28,
				1.0658141036401503e-14,
				-2.0194839173657902e-28,
				1
			],
			"translation":[
				-6.2063350014796015e-09,
				-1.477429290019927e-13,
				-3.162863393413318e-08
			]
		},
		{
			"children":[
				2
			],
			"name":"Eye.R",
			"rotation":[
				-8.077935669463161e-28,
				-2.384185791015625e-07,
				-2.0194839173657902e-28,
				1
			],
			"translation":[
				0.13266009092330933,
				-1.477429290019927e-13,
				3.162862682870582e-08
			]
		},
		{
			"children":[
				1,
				3
			],
			"name":"Eyes",
			"rotation":[
				-0.7071067690849304,
				-5.024295781800919e-15,
				-1.6858739115832577e-07,
				0.7071067690849304
			],
			"translation":[
				3.890321664812291e-08,
				0.15729165077209473,
				-0.1631719172000885
			]
		},
		{
			"name":"HeadMorphTop",
			"rotation":[
				0.01512190978974104,
				5.283583348614229e-08,
				-0.01549450121819973,
				0.9997656345367432
			],
			"scale":[
				1,
				1.0000001192092896,
				1
			],
			"translation":[
				0.002157397335395217,
				0.18338298797607422,
				0.0021055196411907673
			]
		},
		{
			"name":"MouthEdge.L",
			"rotation":[
				-4.736012141609417e-16,
				3.6843819858358665e-15,
				6.364605565668813e-17,
				1
			],
			"scale":[
				1,
				0.9999999403953552,
				1
			],
			"translation":[
				-0.07429010421037674,
				-0.02785862609744072,
				0.0013265267480164766
			]
		},
		{
			"children":[
				6
			],
			"name":"Mouth.L",
			"rotation":[
				-7.5260195444570854e-06,
				-6.903682070458217e-10,
				4.90194822531714e-15,
				1
			],
			"translation":[
				-0.07163599878549576,
				-0.002653478179126978,
				1.476705961067637e-06
			]
		},
		{
			"name":"MouthEdge.R",
			"rotation":[
				4.735834794086086e-16,
				3.2106092686789295e-14,
				6.353890598886046e-17,
				1
			],
			"scale":[
				1,
				0.9999999403953552,
				1
			],
			"translation":[
				0.07429010421037674,
				-0.02785862237215042,
				0.0013265255838632584
			]
		},
		{
			"children":[
				8
			],
			"name":"Mouth.R",
			"rotation":[
				-7.526018634962384e-06,
				-2.3910897084533644e-07,
				1.7992444556816367e-12,
				1
			],
			"translation":[
				0.07163599878549576,
				-0.0026534919161349535,
				1.5105191550901509e-06
			]
		},
		{
			"children":[
				7,
				9
			],
			"name":"Mouth.C",
			"rotation":[
				-0.717628538608551,
				-0.0109562324360013,
				0.010956146754324436,
				0.6962537169456482
			],
			"translation":[
				-0.0044320449233055115,
				0.0729958564043045,
				-0.023427963256835938
			]
		},
		{
			"children":[
				10
			],
			"name":"HeadMorphFaceBottom",
			"rotation":[
				0.0151218855753541,
				5.135118996690835e-08,
				-0.015494504943490028,
				0.9997656345367432
			],
			"translation":[
				0.0021574452985078096,
				-0.2080700397491455,
				-0.1990080028772354
			]
		},
		{
			"children":[
				5,
				11
			],
			"name":"HeadMorph"
		},
		{
			"children":[
				4,
				12
			],
			"name":"Head",
			"rotation":[
				0,
				7.105427357601002e-15,
				0,
				1
			],
			"translation":[
				0,
				0.4416768550872803,
				0
			]
		},
		{
			"children":[
				13
			],
			"name":"Neck",
			"rotation":[
				0,
				-7.105427357601002e-15,
				0,
				1
			],
			"scale":[
				1,
				0.9999999403953552,
				1
			],
			"translation":[
				0,
				1.5,
				0
			]
		},
		{
			"name":"HandMorph.L",
			"rotation":[
				1.9843948706466108e-08,
				-3.1569191705216326e-13,
				-4.768754835460243e-15,
				1
			],
			"translation":[
				-1.0865818467209465e-08,
				2.2632665519495276e-08,
				-1.598067456143326e-08
			]
		},
		{
			"children":[
				15
			],
			"name":"Hand.L",
			"rotation":[
				1.2138750093981798e-07,
				4.2058310611992056e-08,
				0.9999777674674988,
				0.006666331551969051
			],
			"scale":[
				0.9999999403953552,
				1,
				1
			],
			"translation":[
				-0.8434757590293884,
				0.9805809259414673,
				-0.18538476526737213
			]
		},
		{
			"name":"HandMorph.R",
			"rotation":[
				-1.9843962917320823e-08,
				1.39194211712379e-13,
				-4.7683211545912485e-15,
				1
			],
			"translation":[
				-4.8738783675617015e-08,
				7.917616784425263e-09,
				2.6132283892366104e-08
			]
		},
		{
			"children":[
				17
			],
			"name":"Hand.R",
			"rotation":[
				3.6006562709189893e-07,
				-8.333470447041691e-08,
				-0.9999777674674988,
				0.006666331551969051
			],
			"scale":[
				0.9999999403953552,
				1,
				1
			],
			"translation":[
				0.843475878238678,
				0.9805809259414673,
				-0.1853843778371811
			]
		},
		{
			"name":"BodyMorphTop",
			"translation":[
				0,
				0.75,
				0
			]
		},
		{
			"children":[
				19
			],
			"name":"BodyMorphBottom"
		},
		{
			"children":[
				14,
				16,
				18,
				20
			],
			"name":"Body",
			"rotation":[
				0.7071067690849304,
				8.429369557916289e-08,
				8.429369557916289e-08,
				0.7071067690849304
			],
			"translation":[
				0,
				0,
				0.5
			]
		},
		{
			"children":[
				21
			],
			"name":"Root",
			"rotation":[
				-0.7071067690849304,
				0,
				0,
				0.7071067690849304
			]
		},
		{
			"mesh":0,
			"name":"Body",
			"skin":0
		},
		{
			"mesh":1,
			"name":"Face",
			"skin":0
		},
		{
			"mesh":2,
			"name":"Hands",
			"skin":0
		},
		{
			"mesh":3,
			"name":"Head",
			"skin":0
		},
		{
			"children":[
				23,
				24,
				25,
				26,
				22
			],
			"name":"Armature"
		}
	],
	"meshes":[
		{
			"name":"Mesh",
			"primitives":[
				{
					"attributes":{
						"POSITION":0,
						"NORMAL":1,
						"TEXCOORD_0":2,
						"JOINTS_0":3,
						"WEIGHTS_0":4
					},
					"indices":5
				}
			]
		},
		{
			"name":"Cube.004",
			"primitives":[
				{
					"attributes":{
						"POSITION":7,
						"NORMAL":8,
						"TEXCOORD_0":9,
						"JOINTS_0":10,
						"WEIGHTS_0":11
					},
					"indices":12
				}
			]
		},
		{
			"name":"Mesh",
			"primitives":[
				{
					"attributes":{
						"POSITION":13,
						"NORMAL":14,
						"TEXCOORD_0":15,
						"JOINTS_0":16,
						"WEIGHTS_0":17
					},
					"indices":18
				}
			]
		},
		{
			"name":"Cube.002",
			"primitives":[
				{
					"attributes":{
						"POSITION":19,
						"NORMAL":20,
						"TEXCOORD_0":21,
						"JOINTS_0":22,
						"WEIGHTS_0":23
					},
					"indices":24
				}
			]
		}
	],
	"skins":[
		{
			"inverseBindMatrices":6,
			"joints":[
				22,
				21,
				14,
				13,
				4,
				1,
				0,
				3,
				2,
				12,
				5,
				11,
				10,
				7,
				6,
				9,
				8,
				16,
				15,
				18,
				17,
				20,
				19
			],
			"name":"Armature"
		}
	],
	"accessors":[
		{
			"bufferView":0,
			"componentType":5126,
			"count":96,
			"max":[
				0.6168056726455688,
				2.103813648223877,
				0.3464813232421875
			],
			"min":[
				-0.6168057322502136,
				0.4541065990924835,
				-0.8163004517555237
			],
			"type":"VEC3"
		},
		{
			"bufferView":1,
			"componentType":5126,
			"count":96,
			"type":"VEC3"
		},
		{
			"bufferView":2,
			"componentType":5126,
			"count":96,
			"type":"VEC2"
		},
		{
			"bufferView":3,
			"componentType":5121,
			"count":96,
			"type":"VEC4"
		},
		{
			"bufferView":4,
			"componentType":5126,
			"count":96,
			"type":"VEC4"
		},
		{
			"bufferView":5,
			"componentType":5123,
			"count":144,
			"type":"SCALAR"
		},
		{
			"bufferView":6,
			"componentType":5126,
			"count":23,
			"type":"MAT4"
		},
		{
			"bufferView":7,
			"componentType":5126,
			"count":116,
			"max":[
				0.1630731225013733,
				2.630866050720215,
				-0.28401896357536316
			],
			"min":[
				-0.1630731225013733,
				2.2981197834014893,
				-0.34938305616378784
			],
			"type":"VEC3"
		},
		{
			"bufferView":8,
			"componentType":5126,
			"count":116,
			"type":"VEC3"
		},
		{
			"bufferView":9,
			"componentType":5126,
			"count":116,
			"type":"VEC2"
		},
		{
			"bufferView":10,
			"componentType":5121,
			"count":116,
			"type":"VEC4"
		},
		{
			"bufferView":11,
			"componentType":5126,
			"count":116,
			"type":"VEC4"
		},
		{
			"bufferView":12,
			"componentType":5123,
			"count":180,
			"type":"SCALAR"
		},
		{
			"bufferView":13,
			"componentType":5126,
			"count":192,
			"max":[
				0.9845364093780518,
				1.4953526258468628,
				-0.06425300985574722
			],
			"min":[
				-0.9845364093780518,
				1.1472480297088623,
				-0.34652888774871826
			],
			"type":"VEC3"
		},
		{
			"bufferView":14,
			"componentType":5126,
			"count":192,
			"type":"VEC3"
		},
		{
			"bufferView":15,
			"componentType":5126,
			"count":192,
			"type":"VEC2"
		},
		{
			"bufferView":16,
			"componentType":5121,
			"count":192,
			"type":"VEC4"
		},
		{
			"bufferView":17,
			"componentType":5126,
			"count":192,
			"type":"VEC4"
		},
		{
			"bufferView":18,
			"componentType":5123,
			"count":288,
			"type":"SCALAR"
		},
		{
			"bufferView":19,
			"componentType":5126,
			"count":128,
			"max":[
				0.2918493151664734,
				2.850639820098877,
				0.1889774650335312
			],
			"min":[
				-0.2918493151664734,
				2.1789817810058594,
				-0.3445456624031067
			],
			"type":"VEC3"
		},
		{
			"bufferView":20,
			"componentType":5126,
			"count":128,
			"type":"VEC3"
		},
		{
			"bufferView":21,
			"componentType":5126,
			"count":128,
			"type":"VEC2"
		},
		{
			"bufferView":22,
			"componentType":5121,
			"count":128,
			"type":"VEC4"
		},
		{
			"bufferView":23,
			"componentType":5126,
			"count":128,
			"type":"VEC4"
		},
		{
			"bufferView":24,
			"componentType":5123,
			"count":192,
			"type":"SCALAR"
		}
	],
	"bufferViews":[
		{
			"buffer":0,
			"byteLength":1152,
			"byteOffset":0,
			"target":34962
		},
		{
			"buffer":0,
			"byteLength":1152,
			"byteOffset":1152,
			"target":34962
		},
		{
			"buffer":0,
			"byteLength":768,
			"byteOffset":2304,
			"target":34962
		},
		{
			"buffer":0,
			"byteLength":384,
			"byteOffset":3072,
			"target":34962
		},
		{
			"buffer":0,
			"byteLength":1536,
			"byteOffset":3456,
			"target":34962
		},
		{
			"buffer":0,
			"byteLength":288,
			"byteOffset":4992,
			"target":34963
		},
		{
			"buffer":0,
			"byteLength":1472,
			"byteOffset":5280
		},
		{
			"buffer":0,
			"byteLength":1392,
			"byteOffset":6752,
			"target":34962
		},
		{
			"buffer":0,
			"byteLength":1392,
			"byteOffset":8144,
			"target":34962
		},
		{
			"buffer":0,
			"byteLength":928,
			"byteOffset":9536,
			"target":34962
		},
		{
			"buffer":0,
			"byteLength":464,
			"byteOffset":10464,
			"target":34962
		},
		{
			"buffer":0,
			"byteLength":1856,
			"byteOffset":10928,
			"target":34962
		},
		{
			"buffer":0,
			"byteLength":360,
			"byteOffset":12784,
			"target":34963
		},
		{
			"buffer":0,
			"byteLength":2304,
			"byteOffset":13144,
			"target":34962
		},
		{
			"buffer":0,
			"byteLength":2304,
			"byteOffset":15448,
			"target":34962
		},
		{
			"buffer":0,
			"byteLength":1536,
			"byteOffset":17752,
			"target":34962
		},
		{
			"buffer":0,
			"byteLength":768,
			"byteOffset":19288,
			"target":34962
		},
		{
			"buffer":0,
			"byteLength":3072,
			"byteOffset":20056,
			"target":34962
		},
		{
			"buffer":0,
			"byteLength":576,
			"byteOffset":23128,
			"target":34963
		},
		{
			"buffer":0,
			"byteLength":1536,
			"byteOffset":23704,
			"target":34962
		},
		{
			"buffer":0,
			"byteLength":1536,
			"byteOffset":25240,
			"target":34962
		},
		{
			"buffer":0,
			"byteLength":1024,
			"byteOffset":26776,
			"target":34962
		},
		{
			"buffer":0,
			"byteLength":512,
			"byteOffset":27800,
			"target":34962
		},
		{
			"buffer":0,
			"byteLength":2048,
			"byteOffset":28312,
			"target":34962
		},
		{
			"buffer":0,
			"byteLength":384,
			"byteOffset":30360,
			"target":34963
		}
	],
	"buffers":[
		{
			"byteLength":30744,
			"uri":"data:application/octet-stream;base64,"
		}
	]
}
