{
	"asset":{
		"generator":"Khronos glTF Blender I/O v3.6.27",
		"version":"2.0"
	},
	"extensionsUsed":[
		"KHR_lights_punctual"
	],
	"extensionsRequired":[
		"KHR_lights_punctual"
	],
	"extensions":{
		"KHR_lights_punctual":{
			"lights":[
				{
					"color":[
						1,
						1,
						1
					],
					"intensity":683,
					"type":"directional",
					"name":"Sun"
				}
			]
		}
	},
	"scene":1,
	"scenes":[
		{
			"name":"Grass",
			"nodes":[
				0,
				1,
				2,
				3
			]
		},
		{
			"name":"Root",
			"nodes":[
				4,
				5,
				6,
				7
			]
		},
		{
			"name":"Sand",
			"nodes":[
				8,
				9,
				10,
				11
			]
		}
	],
	"nodes":[
		{
			"extensions":{
				"KHR_lights_punctual":{
					"light":0
				}
			},
			"name":"Sun",
			"rotation":[
				-0.4285448491573334,
				0.4483965337276459,
				-0.41539281606674194,
				0.6653861999511719
			]
		},
		{
			"mesh":0,
			"name":"Plane"
		},
		{
			"mesh":1,
			"name":"Plane.001",
			"translation":[
				0,
				0.41935038566589355,
				0
			]
		},
		{
			"mesh":2,
			"name":"Plane.002",
			"translation":[
				0,
				0.41935038566589355,
				0
			]
		},
		{
			"extensions":{
				"KHR_lights_punctual":{
					"light":0
				}
			},
			"name":"Sun",
			"rotation":[
				-0.4285448491573334,
				0.4483965337276459,
				-0.41539281606674194,
				0.6653861999511719
			]
		},
		{
			"mesh":3,
			"name":"Plane"
		},
		{
			"mesh":4,
			"name":"Plane.001",
			"translation":[
				0,
				0.41935038566589355,
				0
			]
		},
		{
			"mesh":5,
			"name":"Plane.002",
			"translation":[
				0,
				0.41935038566589355,
				0
			]
		},
		{
			"extensions":{
				"KHR_lights_punctual":{
					"light":0
				}
			},
			"name":"Sun",
			"rotation":[
				-0.4285448491573334,
				0.4483965337276459,
				-0.41539281606674194,
				0.6653861999511719
			]
		},
		{
			"mesh":6,
			"name":"Plane"
		},
		{
			"mesh":7,
			"name":"Plane.001",
			"translation":[
				0,
				0.41935038566589355,
				0
			]
		},
		{
			"mesh":8,
			"name":"Plane.002",
			"translation":[
				0,
				0.41935038566589355,
				0
			]
		}
	],
	"meshes":[
		{
			"name":"Plane.002",
			"primitives":[
				{
					"attributes":{
						"POSITION":0,
						"NORMAL":1,
						"TEXCOORD_0":2
					},
					"indices":3
				}
			]
		},
		{
			"name":"Plane.001",
			"primitives":[
				{
					"attributes":{
						"POSITION":4,
						"NORMAL":5,
						"TEXCOORD_0":6
					},
					"indices":7
				}
			]
		},
		{
			"name":"Plane.003",
			"primitives":[
				{
					"attributes":{
						"POSITION":8,
						"NORMAL":9,
						"TEXCOORD_0":10
					},
					"indices":11
				}
			]
		},
		{
			"name":"Plane.002",
			"primitives":[
				{
					"attributes":{
						"POSITION":12,
						"NORMAL":13,
						"TEXCOORD_0":14
					},
					"indices":3
				}
			]
		},
		{
			"name":"Plane.001",
			"primitives":[
				{
					"attributes":{
						"POSITION":15,
						"NORMAL":16,
						"TEXCOORD_0":17
					},
					"indices":7
				}
			]
		},
		{
			"name":"Plane.003",
			"primitives":[
				{
					"attributes":{
						"POSITION":18,
						"NORMAL":19,
						"TEXCOORD_0":20
					},
					"indices":11
				}
			]
		},
		{
			"name":"Plane.002",
			"primitives":[
				{
					"attributes":{
						"POSITION":21,
						"NORMAL":22,
						"TEXCOORD_0":23
					},
					"indices":3
				}
			]
		},
		{
			"name":"Plane.001",
			"primitives":[
				{
					"attributes":{
						"POSITION":24,
						"NORMAL":25,
						"TEXCOORD_0":26
					},
					"indices":7
				}
			]
		},
		{
			"name":"Plane.003",
			"primitives":[
				{
					"attributes":{
						"POSITION":27,
						"NORMAL":28,
						"TEXCOORD_0":29
					},
					"indices":11
				}
			]
		}
	],
	"accessors":[
		{
			"bufferView":0,
			"componentType":5126,
			"count":2364,
			"max":[
				9.709562301635742,
				4.755354881286621,
				10.445150375366211
			],
			"min":[
				-11.240025520324707,
				0.09396636486053467,
				-9.265190124511719
			],
			"type":"VEC3"
		},
		{
			"bufferView":1,
			"componentType":5126,
			"count":2364,
			"type":"VEC3"
		},
		{
			"bufferView":2,
			"componentType":5126,
			"count":2364,
			"type":"VEC2"
		},
		{
			"bufferView":3,
			"componentType":5123,
			"count":13908,
			"type":"SCALAR"
		},
		{
			"bufferView":4,
			"componentType":5126,
			"count":442,
			"max":[
				18.651203155517578,
				8.241022109985352,
				16.266864776611328
			],
			"min":[
				-17.574512481689453,
				-1.6000488996505737,
				-15.456178665161133
			],
			"type":"VEC3"
		},
		{
			"bufferView":5,
			"componentType":5126,
			"count":442,
			"type":"VEC3"
		},
		{
			"bufferView":6,
			"componentType":5126,
			"count":442,
			"type":"VEC2"
		},
		{
			"bufferView":7,
			"componentType":5123,
			"count":2652,
			"type":"SCALAR"
		},
		{
			"bufferView":8,
			"componentType":5126,
			"count":484,
			"max":[
				31.82530975341797,
				8.38015365600586,
				32.758811950683594
			],
			"min":[
				-26.230239868164062,
				-1.6359775066375732,
				-24.61105728149414
			],
			"type":"VEC3"
		},
		{
			"bufferView":9,
			"componentType":5126,
			"count":484,
			"type":"VEC3"
		},
		{
			"bufferView":10,
			"componentType":5126,
			"count":484,
			"type":"VEC2"
		},
		{
			"bufferView":11,
			"componentType":5123,
			"count":2904,
			"type":"SCALAR"
		},
		{
			"bufferView":12,
			"componentType":5126,
			"count":2364,
			"max":[
				9.709562301635742,
				4.755354881286621,
				10.445150375366211
			],
			"min":[
				-11.240025520324707,
				0.09396636486053467,
				-9.265190124511719
			],
			"type":"VEC3"
		},
		{
			"bufferView":13,
			"componentType":5126,
			"count":2364,
			"type":"VEC3"
		},
		{
			"bufferView":14,
			"componentType":5126,
			"count":2364,
			"type":"VEC2"
		},
		{
			"bufferView":15,
			"componentType":5126,
			"count":442,
			"max":[
				18.651203155517578,
				8.241022109985352,
				16.266864776611328
			],
			"min":[
				-17.574512481689453,
				-1.6000488996505737,
				-15.456178665161133
			],
			"type":"VEC3"
		},
		{
			"bufferView":16,
			"componentType":5126,
			"count":442,
			"type":"VEC3"
		},
		{
			"bufferView":17,
			"componentType":5126,
			"count":442,
			"type":"VEC2"
		},
		{
			"bufferView":18,
			"componentType":5126,
			"count":484,
			"max":[
				31.82530975341797,
				8.38015365600586,
				32.758811950683594
			],
			"min":[
				-26.230239868164062,
				-1.6359775066375732,
				-24.61105728149414
			],
			"type":"VEC3"
		},
		{
			"bufferView":19,
			"componentType":5126,
			"count":484,
			"type":"VEC3"
		},
		{
			"bufferView":20,
			"componentType":5126,
			"count":484,
			"type":"VEC2"
		},
		{
			"bufferView":21,
			"componentType":5126,
			"count":2364,
			"max":[
				9.709562301635742,
				4.755354881286621,
				10.445150375366211
			],
			"min":[
				-11.240025520324707,
				0.09396636486053467,
				-9.265190124511719
			],
			"type":"VEC3"
		},
		{
			"bufferView":22,
			"componentType":5126,
			"count":2364,
			"type":"VEC3"
		},
		{
			"bufferView":23,
			"componentType":5126,
			"count":2364,
			"type":"VEC2"
		},
		{
			"bufferView":24,
			"componentType":5126,
			"count":442,
			"max":[
				18.651203155517578,
				8.241022109985352,
				16.266864776611328
			],
			"min":[
				-17.574512481689453,
				-1.6000488996505737,
				-15.456178665161133
			],
			"type":"VEC3"
		},
		{
			"bufferView":25,
			"componentType":5126,
			"count":442,
			"type":"VEC3"
		},
		{
			"bufferView":26,
			"componentType":5126,
			"count":442,
			"type":"VEC2"
		},
		{
			"bufferView":27,
			"componentType":5126,
			"count":484,
			"max":[
				31.82530975341797,
				8.38015365600586,
				32.758811950683594
			],
			"min":[
				-26.230239868164062,
				-1.6359775066375732,
				-24.61105728149414
			],
			"type":"VEC3"
		},
		{
			"bufferView":28,
			"componentType":5126,
			"count":484,
			"type":"VEC3"
		},
		{
			"bufferView":29,
			"componentType":5126,
			"count":484,
			"type":"VEC2"
		}
	],
	"bufferViews":[
		{
			"buffer":0,
			"byteLength":28368,
			"byteOffset":0,
			"target":34962
		},
		{
			"buffer":0,
			"byteLength":28368,
			"byteOffset":28368,
			"target":34962
		},
		{
			"buffer":0,
			"byteLength":18912,
			"byteOffset":56736,
			"target":34962
		},
		{
			"buffer":0,
			"byteLength":27816,
			"byteOffset":75648,
			"target":34963
		},
		{
			"buffer":0,
			"byteLength":5304,
			"byteOffset":103464,
			"target":34962
		},
		{
			"buffer":0,
			"byteLength":5304,
			"byteOffset":108768,
			"target":34962
		},
		{
			"buffer":0,
			"byteLength":3536,
			"byteOffset":114072,
			"target":34962
		},
		{
			"buffer":0,
			"byteLength":5304,
			"byteOffset":117608,
			"target":34963
		},
		{
			"buffer":0,
			"byteLength":5808,
			"byteOffset":122912,
			"target":34962
		},
		{
			"buffer":0,
			"byteLength":5808,
			"byteOffset":128720,
			"target":34962
		},
		{
			"buffer":0,
			"byteLength":3872,
			"byteOffset":134528,
			"target":34962
		},
		{
			"buffer":0,
			"byteLength":5808,
			"byteOffset":138400,
			"target":34963
		},
		{
			"buffer":0,
			"byteLength":28368,
			"byteOffset":144208,
			"target":34962
		},
		{
			"buffer":0,
			"byteLength":28368,
			"byteOffset":172576,
			"target":34962
		},
		{
			"buffer":0,
			"byteLength":18912,
			"byteOffset":200944,
			"target":34962
		},
		{
			"buffer":0,
			"byteLength":5304,
			"byteOffset":219856,
			"target":34962
		},
		{
			"buffer":0,
			"byteLength":5304,
			"byteOffset":225160,
			"target":34962
		},
		{
			"buffer":0,
			"byteLength":3536,
			"byteOffset":230464,
			"target":34962
		},
		{
			"buffer":0,
			"byteLength":5808,
			"byteOffset":234000,
			"target":34962
		},
		{
			"buffer":0,
			"byteLength":5808,
			"byteOffset":239808,
			"target":34962
		},
		{
			"buffer":0,
			"byteLength":3872,
			"byteOffset":245616,
			"target":34962
		},
		{
			"buffer":0,
			"byteLength":28368,
			"byteOffset":249488,
			"target":34962
		},
		{
			"buffer":0,
			"byteLength":28368,
			"byteOffset":277856,
			"target":34962
		},
		{
			"buffer":0,
			"byteLength":18912,
			"byteOffset":306224,
			"target":34962
		},
		{
			"buffer":0,
			"byteLength":5304,
			"byteOffset":325136,
			"target":34962
		},
		{
			"buffer":0,
			"byteLength":5304,
			"byteOffset":330440,
			"target":34962
		},
		{
			"buffer":0,
			"byteLength":3536,
			"byteOffset":335744,
			"target":34962
		},
		{
			"buffer":0,
			"byteLength":5808,
			"byteOffset":339280,
			"target":34962
		},
		{
			"buffer":0,
			"byteLength":5808,
			"byteOffset":345088,
			"target":34962
		},
		{
			"buffer":0,
			"byteLength":3872,
			"byteOffset":350896,
			"target":34962
		}
	],
	"buffers":[
		{
			"byteLength":354768,
			"uri":"data:application/octet-stream;base64,"
		}
	]
}
