{
	"asset":{
		"generator":"Khronos glTF Blender I/O v3.6.27",
		"version":"2.0"
	},
	"extensionsUsed":[
		"KHR_lights_punctual"
	],
	"extensionsRequired":[
		"KHR_lights_punctual"
	],
	"extensions":{
		"KHR_lights_punctual":{
			"lights":[
				{
					"color":[
						1,
						1,
						1
					],
					"intensity":6830,
					"type":"directional",
					"name":"Sun"
				}
			]
		}
	},
	"scene":0,
	"scenes":[
		{
			"name":"Root",
			"nodes":[
				0,
				1,
				2,
				3,
				18
			]
		}
	],
	"nodes":[
		{
			"extensions":{
				"KHR_lights_punctual":{
					"light":0
				}
			},
			"name":"Sun",
			"rotation":[
				-0.28447869420051575,
				0.231916606426239,
				-0.27718570828437805,
				0.8879497051239014
			]
		},
		{
			"mesh":0,
			"name":"Plane"
		},
		{
			"mesh":1,
			"name":"Plane.001",
			"translation":[
				0,
				0.41935038566589355,
				0
			]
		},
		{
			"mesh":2,
			"name":"Plane.002",
			"translation":[
				0,
				0.41935038566589355,
				0
			]
		},
		{
			"name":"Location.000",
			"translation":[
				-2.1443252563476562,
				4.7973246574401855,
				3.5273001194000244
			]
		},
		{
			"name":"Location.001",
			"translation":[
				0.0041061341762542725,
				3.4945664405822754,
				1.6467130184173584
			]
		},
		{
			"name":"Location.002",
			"translation":[
				-1.8198986053466797,
				2.4973747730255127,
				-0.5003406405448914
			]
		},
		{
			"name":"Location.003",
			"translation":[
				-3.483485460281372,
				2.623927354812622,
				-0.1296786218881607
			]
		},
		{
			"name":"Location.004",
			"translation":[
				-4.256023406982422,
				3.878915548324585,
				2.6306564807891846
			]
		},
		{
			"name":"Location.005",
			"translation":[
				-5.192083358764648,
				3.0556211471557617,
				-4.022054672241211
			]
		},
		{
			"name":"Location.006",
			"translation":[
				-4.585341453552246,
				2.7627363204956055,
				-1.6659702062606812
			]
		},
		{
			"name":"Location.007",
			"translation":[
				-3.552189826965332,
				2.5529263019561768,
				-2.3752248287200928
			]
		},
		{
			"name":"Location.008",
			"translation":[
				3.1349825859069824,
				3.022305965423584,
				1.4261761903762817
			]
		},
		{
			"name":"Location.009",
			"translation":[
				4.863181114196777,
				2.9392449855804443,
				2.4616918563842773
			]
		},
		{
			"name":"Location.010",
			"translation":[
				1.919297695159912,
				3.485882520675659,
				3.0399701595306396
			]
		},
		{
			"name":"Location.011",
			"translation":[
				4.695064067840576,
				2.817009687423706,
				-2.364046573638916
			]
		},
		{
			"name":"Location.012",
			"translation":[
				4.460980415344238,
				2.391922950744629,
				-5.2715020179748535
			]
		},
		{
			"name":"Location.013",
			"translation":[
				5.477237701416016,
				2.9748051166534424,
				0.1650206446647644
			]
		},
		{
			"children":[
				4,
				5,
				6,
				7,
				8,
				9,
				10,
				11,
				12,
				13,
				14,
				15,
				16,
				17
			],
			"name":"Locations"
		}
	],
	"meshes":[
		{
			"name":"Plane.002",
			"primitives":[
				{
					"attributes":{
						"POSITION":0,
						"NORMAL":1,
						"TEXCOORD_0":2
					},
					"indices":3
				}
			]
		},
		{
			"name":"Plane.001",
			"primitives":[
				{
					"attributes":{
						"POSITION":4,
						"NORMAL":5,
						"TEXCOORD_0":6
					},
					"indices":7
				}
			]
		},
		{
			"name":"Plane.003",
			"primitives":[
				{
					"attributes":{
						"POSITION":8,
						"NORMAL":9,
						"TEXCOORD_0":10
					},
					"indices":11
				}
			]
		}
	],
	"accessors":[
		{
			"bufferView":0,
			"componentType":5126,
			"count":2364,
			"max":[
				9.709562301635742,
				4.755354881286621,
				10.445150375366211
			],
			"min":[
				-11.240025520324707,
				0.09396636486053467,
				-9.265190124511719
			],
			"type":"VEC3"
		},
		{
			"bufferView":1,
			"componentType":5126,
			"count":2364,
			"type":"VEC3"
		},
		{
			"bufferView":2,
			"componentType":5126,
			"count":2364,
			"type":"VEC2"
		},
		{
			"bufferView":3,
			"componentType":5123,
			"count":13908,
			"type":"SCALAR"
		},
		{
			"bufferView":4,
			"componentType":5126,
			"count":442,
			"max":[
				18.651203155517578,
				8.241022109985352,
				16.266864776611328
			],
			"min":[
				-17.574512481689453,
				-1.6000488996505737,
				-15.456178665161133
			],
			"type":"VEC3"
		},
		{
			"bufferView":5,
			"componentType":5126,
			"count":442,
			"type":"VEC3"
		},
		{
			"bufferView":6,
			"componentType":5126,
			"count":442,
			"type":"VEC2"
		},
		{
			"bufferView":7,
			"componentType":5123,
			"count":2652,
			"type":"SCALAR"
		},
		{
			"bufferView":8,
			"componentType":5126,
			"count":484,
			"max":[
				31.82530975341797,
				8.38015365600586,
				32.758811950683594
			],
			"min":[
				-26.230239868164062,
				-1.6359775066375732,
				-24.61105728149414
			],
			"type":"VEC3"
		},
		{
			"bufferView":9,
			"componentType":5126,
			"count":484,
			"type":"VEC3"
		},
		{
			"bufferView":10,
			"componentType":5126,
			"count":484,
			"type":"VEC2"
		},
		{
			"bufferView":11,
			"componentType":5123,
			"count":2904,
			"type":"SCALAR"
		}
	],
	"bufferViews":[
		{
			"buffer":0,
			"byteLength":28368,
			"byteOffset":0,
			"target":34962
		},
		{
			"buffer":0,
			"byteLength":28368,
			"byteOffset":28368,
			"target":34962
		},
		{
			"buffer":0,
			"byteLength":18912,
			"byteOffset":56736,
			"target":34962
		},
		{
			"buffer":0,
			"byteLength":27816,
			"byteOffset":75648,
			"target":34963
		},
		{
			"buffer":0,
			"byteLength":5304,
			"byteOffset":103464,
			"target":34962
		},
		{
			"buffer":0,
			"byteLength":5304,
			"byteOffset":108768,
			"target":34962
		},
		{
			"buffer":0,
			"byteLength":3536,
			"byteOffset":114072,
			"target":34962
		},
		{
			"buffer":0,
			"byteLength":5304,
			"byteOffset":117608,
			"target":34963
		},
		{
			"buffer":0,
			"byteLength":5808,
			"byteOffset":122912,
			"target":34962
		},
		{
			"buffer":0,
			"byteLength":5808,
			"byteOffset":128720,
			"target":34962
		},
		{
			"buffer":0,
			"byteLength":3872,
			"byteOffset":134528,
			"target":34962
		},
		{
			"buffer":0,
			"byteLength":5808,
			"byteOffset":138400,
			"target":34963
		}
	],
	"buffers":[
		{
			"byteLength":144208,
			"uri":"data:application/octet-stream;base64,"
		}
	]
}
