{
	"asset":{
		"generator":"Khronos glTF Blender I/O v3.6.27",
		"version":"2.0"
	},
	"extensionsUsed":[
		"KHR_lights_punctual"
	],
	"extensionsRequired":[
		"KHR_lights_punctual"
	],
	"extensions":{
		"KHR_lights_punctual":{
			"lights":[
				{
					"color":[
						1,
						1,
						1
					],
					"intensity":683,
					"type":"directional",
					"name":"Sun"
				}
			]
		}
	},
	"scene":1,
	"scenes":[
		{
			"name":"Grass",
			"nodes":[
				0,
				1
			]
		},
		{
			"name":"Root",
			"nodes":[
				2,
				3
			]
		},
		{
			"name":"Sand",
			"nodes":[
				4,
				5
			]
		}
	],
	"nodes":[
		{
			"extensions":{
				"KHR_lights_punctual":{
					"light":0
				}
			},
			"name":"Sun",
			"rotation":[
				-0.4285448491573334,
				0.4483965337276459,
				-0.41539281606674194,
				0.6653861999511719
			]
		},
		{
			"mesh":0,
			"name":"Plane"
		},
		{
			"extensions":{
				"KHR_lights_punctual":{
					"light":0
				}
			},
			"name":"Sun",
			"rotation":[
				-0.4285448491573334,
				0.4483965337276459,
				-0.41539281606674194,
				0.6653861999511719
			]
		},
		{
			"mesh":1,
			"name":"Plane"
		},
		{
			"extensions":{
				"KHR_lights_punctual":{
					"light":0
				}
			},
			"name":"Sun",
			"rotation":[
				-0.4285448491573334,
				0.4483965337276459,
				-0.41539281606674194,
				0.6653861999511719
			]
		},
		{
			"mesh":2,
			"name":"Plane"
		}
	],
	"meshes":[
		{
			"name":"Plane.002",
			"primitives":[
				{
					"attributes":{
						"POSITION":0,
						"NORMAL":1,
						"TEXCOORD_0":2
					},
					"indices":3
				},
				{
					"attributes":{
						"POSITION":4,
						"NORMAL":5,
						"TEXCOORD_0":6
					},
					"indices":7
				}
			]
		},
		{
			"name":"Plane.002",
			"primitives":[
				{
					"attributes":{
						"POSITION":8,
						"NORMAL":9,
						"TEXCOORD_0":10
					},
					"indices":3
				},
				{
					"attributes":{
						"POSITION":11,
						"NORMAL":12,
						"TEXCOORD_0":13
					},
					"indices":7
				}
			]
		},
		{
			"name":"Plane.002",
			"primitives":[
				{
					"attributes":{
						"POSITION":14,
						"NORMAL":15,
						"TEXCOORD_0":16
					},
					"indices":3
				},
				{
					"attributes":{
						"POSITION":17,
						"NORMAL":18,
						"TEXCOORD_0":19
					},
					"indices":7
				}
			]
		}
	],
	"accessors":[
		{
			"bufferView":0,
			"componentType":5126,
			"count":926,
			"max":[
				8.132879257202148,
				4.854489326477051,
				8.145254135131836
			],
			"min":[
				-8.119962692260742,
				0.5019745826721191,
				-8.153544425964355
			],
			"type":"VEC3"
		},
		{
			"bufferView":1,
			"componentType":5126,
			"count":926,
			"type":"VEC3"
		},
		{
			"bufferView":2,
			"componentType":5126,
			"count":926,
			"type":"VEC2"
		},
		{
			"bufferView":3,
			"componentType":5123,
			"count":5472,
			"type":"SCALAR"
		},
		{
			"bufferView":4,
			"componentType":5126,
			"count":1357,
			"max":[
				7.9722137451171875,
				4.798342704772949,
				7.909279823303223
			],
			"min":[
				-8.02634334564209,
				0.05346071720123291,
				-8.024721145629883
			],
			"type":"VEC3"
		},
		{
			"bufferView":5,
			"componentType":5126,
			"count":1357,
			"type":"VEC3"
		},
		{
			"bufferView":6,
			"componentType":5126,
			"count":1357,
			"type":"VEC2"
		},
		{
			"bufferView":7,
			"componentType":5123,
			"count":8058,
			"type":"SCALAR"
		},
		{
			"bufferView":8,
			"componentType":5126,
			"count":926,
			"max":[
				8.132879257202148,
				4.854489326477051,
				8.145254135131836
			],
			"min":[
				-8.119962692260742,
				0.5019745826721191,
				-8.153544425964355
			],
			"type":"VEC3"
		},
		{
			"bufferView":9,
			"componentType":5126,
			"count":926,
			"type":"VEC3"
		},
		{
			"bufferView":10,
			"componentType":5126,
			"count":926,
			"type":"VEC2"
		},
		{
			"bufferView":11,
			"componentType":5126,
			"count":1357,
			"max":[
				7.9722137451171875,
				4.798342704772949,
				7.909279823303223
			],
			"min":[
				-8.02634334564209,
				0.05346071720123291,
				-8.024721145629883
			],
			"type":"VEC3"
		},
		{
			"bufferView":12,
			"componentType":5126,
			"count":1357,
			"type":"VEC3"
		},
		{
			"bufferView":13,
			"componentType":5126,
			"count":1357,
			"type":"VEC2"
		},
		{
			"bufferView":14,
			"componentType":5126,
			"count":926,
			"max":[
				8.132879257202148,
				4.854489326477051,
				8.145254135131836
			],
			"min":[
				-8.119962692260742,
				0.5019745826721191,
				-8.153544425964355
			],
			"type":"VEC3"
		},
		{
			"bufferView":15,
			"componentType":5126,
			"count":926,
			"type":"VEC3"
		},
		{
			"bufferView":16,
			"componentType":5126,
			"count":926,
			"type":"VEC2"
		},
		{
			"bufferView":17,
			"componentType":5126,
			"count":1357,
			"max":[
				7.9722137451171875,
				4.798342704772949,
				7.909279823303223
			],
			"min":[
				-8.02634334564209,
				0.05346071720123291,
				-8.024721145629883
			],
			"type":"VEC3"
		},
		{
			"bufferView":18,
			"componentType":5126,
			"count":1357,
			"type":"VEC3"
		},
		{
			"bufferView":19,
			"componentType":5126,
			"count":1357,
			"type":"VEC2"
		}
	],
	"bufferViews":[
		{
			"buffer":0,
			"byteLength":11112,
			"byteOffset":0,
			"target":34962
		},
		{
			"buffer":0,
			"byteLength":11112,
			"byteOffset":11112,
			"target":34962
		},
		{
			"buffer":0,
			"byteLength":7408,
			"byteOffset":22224,
			"target":34962
		},
		{
			"buffer":0,
			"byteLength":10944,
			"byteOffset":29632,
			"target":34963
		},
		{
			"buffer":0,
			"byteLength":16284,
			"byteOffset":40576,
			"target":34962
		},
		{
			"buffer":0,
			"byteLength":16284,
			"byteOffset":56860,
			"target":34962
		},
		{
			"buffer":0,
			"byteLength":10856,
			"byteOffset":73144,
			"target":34962
		},
		{
			"buffer":0,
			"byteLength":16116,
			"byteOffset":84000,
			"target":34963
		},
		{
			"buffer":0,
			"byteLength":11112,
			"byteOffset":100116,
			"target":34962
		},
		{
			"buffer":0,
			"byteLength":11112,
			"byteOffset":111228,
			"target":34962
		},
		{
			"buffer":0,
			"byteLength":7408,
			"byteOffset":122340,
			"target":34962
		},
		{
			"buffer":0,
			"byteLength":16284,
			"byteOffset":129748,
			"target":34962
		},
		{
			"buffer":0,
			"byteLength":16284,
			"byteOffset":146032,
			"target":34962
		},
		{
			"buffer":0,
			"byteLength":10856,
			"byteOffset":162316,
			"target":34962
		},
		{
			"buffer":0,
			"byteLength":11112,
			"byteOffset":173172,
			"target":34962
		},
		{
			"buffer":0,
			"byteLength":11112,
			"byteOffset":184284,
			"target":34962
		},
		{
			"buffer":0,
			"byteLength":7408,
			"byteOffset":195396,
			"target":34962
		},
		{
			"buffer":0,
			"byteLength":16284,
			"byteOffset":202804,
			"target":34962
		},
		{
			"buffer":0,
			"byteLength":16284,
			"byteOffset":219088,
			"target":34962
		},
		{
			"buffer":0,
			"byteLength":10856,
			"byteOffset":235372,
			"target":34962
		}
	],
	"buffers":[
		{
			"byteLength":246228,
			"uri":"data:application/octet-stream;base64,"
		}
	]
}
