{
	"asset":{
		"generator":"Khronos glTF Blender I/O v3.6.27",
		"version":"2.0"
	},
	"scene":0,
	"scenes":[
		{
			"name":"Scene",
			"nodes":[
				27
			]
		}
	],
	"nodes":[
		{
			"name":"EyeMorph.L",
			"rotation":[
				8.077935669463161e-28,
				3.552713678800501e-15,
				2.0194839173657902e-28,
				1
			],
			"translation":[
				6.206391844898462e-09,
				-1.477429290019927e-13,
				-3.162862682870582e-08
			]
		},
		{
			"children":[
				0
			],
			"name":"Eye.L",
			"rotation":[
				8.077935669463161e-28,
				3.552713678800501e-15,
				2.0194839173657902e-28,
				1
			],
			"translation":[
				-0.13266009092330933,
				-1.477429290019927e-13,
				-3.162862682870582e-08
			]
		},
		{
			"name":"EyeMorph.R",
			"rotation":[
				-8.077935669463161e-28,
				1.0658141036401503e-14,
				-2.0194839173657902e-28,
				1
			],
			"translation":[
				-6.2063350014796015e-09,
				-1.477429290019927e-13,
				-3.162863393413318e-08
			]
		},
		{
			"children":[
				2
			],
			"name":"Eye.R",
			"rotation":[
				-8.077935669463161e-28,
				-2.384185791015625e-07,
				-2.0194839173657902e-28,
				1
			],
			"translation":[
				0.13266009092330933,
				-1.477429290019927e-13,
				3.162862682870582e-08
			]
		},
		{
			"children":[
				1,
				3
			],
			"name":"Eyes",
			"rotation":[
				-0.7071067690849304,
				-5.024295781800919e-15,
				-1.6858739115832577e-07,
				0.7071067690849304
			],
			"translation":[
				3.890321664812291e-08,
				0.15729165077209473,
				-0.1631719172000885
			]
		},
		{
			"name":"HeadMorphTop",
			"rotation":[
				0.01512190978974104,
				5.283583348614229e-08,
				-0.01549450121819973,
				0.9997656345367432
			],
			"scale":[
				1,
				1.0000001192092896,
				1
			],
			"translation":[
				0.002157397335395217,
				0.18338298797607422,
				0.0021055196411907673
			]
		},
		{
			"name":"MouthEdge.L",
			"rotation":[
				-4.736012141609417e-16,
				3.6843819858358665e-15,
				6.364605565668813e-17,
				1
			],
			"scale":[
				1,
				0.9999999403953552,
				1
			],
			"translation":[
				-0.07429010421037674,
				-0.02785862609744072,
				0.0013265267480164766
			]
		},
		{
			"children":[
				6
			],
			"name":"Mouth.L",
			"rotation":[
				-7.5260195444570854e-06,
				-6.903682070458217e-10,
				4.90194822531714e-15,
				1
			],
			"translation":[
				-0.07163599878549576,
				-0.002653478179126978,
				1.476705961067637e-06
			]
		},
		{
			"name":"MouthEdge.R",
			"rotation":[
				4.735834794086086e-16,
				3.2106092686789295e-14,
				6.353890598886046e-17,
				1
			],
			"scale":[
				1,
				0.9999999403953552,
				1
			],
			"translation":[
				0.07429010421037674,
				-0.02785862237215042,
				0.0013265255838632584
			]
		},
		{
			"children":[
				8
			],
			"name":"Mouth.R",
			"rotation":[
				-7.526018634962384e-06,
				-2.3910897084533644e-07,
				1.7992444556816367e-12,
				1
			],
			"translation":[
				0.07163599878549576,
				-0.0026534919161349535,
				1.5105191550901509e-06
			]
		},
		{
			"children":[
				7,
				9
			],
			"name":"Mouth.C",
			"rotation":[
				-0.717628538608551,
				-0.0109562324360013,
				0.010956146754324436,
				0.6962537169456482
			],
			"translation":[
				-0.0044320449233055115,
				0.0729958564043045,
				-0.023427963256835938
			]
		},
		{
			"children":[
				10
			],
			"name":"HeadMorphFaceBottom",
			"rotation":[
				0.0151218855753541,
				5.135118996690835e-08,
				-0.015494504943490028,
				0.9997656345367432
			],
			"translation":[
				0.0021574452985078096,
				-0.2080700397491455,
				-0.1990080028772354
			]
		},
		{
			"children":[
				5,
				11
			],
			"name":"HeadMorph"
		},
		{
			"children":[
				4,
				12
			],
			"name":"Head",
			"rotation":[
				0,
				7.105427357601002e-15,
				0,
				1
			],
			"translation":[
				0,
				0.4416768550872803,
				0
			]
		},
		{
			"children":[
				13
			],
			"name":"Neck",
			"rotation":[
				0,
				-7.105427357601002e-15,
				0,
				1
			],
			"scale":[
				1,
				0.9999999403953552,
				1
			],
			"translation":[
				0,
				1.5,
				0
			]
		},
		{
			"name":"HandMorph.L",
			"rotation":[
				1.9843948706466108e-08,
				-3.1569191705216326e-13,
				-4.768754835460243e-15,
				1
			],
			"translation":[
				-1.0865818467209465e-08,
				2.2632665519495276e-08,
				-1.598067456143326e-08
			]
		},
		{
			"children":[
				15
			],
			"name":"Hand.L",
			"rotation":[
				1.2138750093981798e-07,
				4.2058310611992056e-08,
				0.9999777674674988,
				0.006666331551969051
			],
			"scale":[
				0.9999999403953552,
				1,
				1
			],
			"translation":[
				-0.8434757590293884,
				0.9805809259414673,
				-0.18538476526737213
			]
		},
		{
			"name":"HandMorph.R",
			"rotation":[
				-1.9843962917320823e-08,
				1.39194211712379e-13,
				-4.7683211545912485e-15,
				1
			],
			"translation":[
				-4.8738783675617015e-08,
				7.917616784425263e-09,
				2.6132283892366104e-08
			]
		},
		{
			"children":[
				17
			],
			"name":"Hand.R",
			"rotation":[
				3.6006562709189893e-07,
				-8.333470447041691e-08,
				-0.9999777674674988,
				0.006666331551969051
			],
			"scale":[
				0.9999999403953552,
				1,
				1
			],
			"translation":[
				0.843475878238678,
				0.9805809259414673,
				-0.1853843778371811
			]
		},
		{
			"name":"BodyMorphTop",
			"translation":[
				0,
				0.75,
				0
			]
		},
		{
			"children":[
				19
			],
			"name":"BodyMorphBottom"
		},
		{
			"children":[
				14,
				16,
				18,
				20
			],
			"name":"Body",
			"rotation":[
				0.7071067690849304,
				8.429369557916289e-08,
				8.429369557916289e-08,
				0.7071067690849304
			],
			"translation":[
				0,
				0,
				0.5
			]
		},
		{
			"children":[
				21
			],
			"name":"Root",
			"rotation":[
				-0.7071067690849304,
				0,
				0,
				0.7071067690849304
			]
		},
		{
			"mesh":0,
			"name":"Body",
			"skin":0
		},
		{
			"mesh":1,
			"name":"Face",
			"skin":0
		},
		{
			"mesh":2,
			"name":"Hands",
			"skin":0
		},
		{
			"mesh":3,
			"name":"Head",
			"skin":0
		},
		{
			"children":[
				23,
				24,
				25,
				26,
				22
			],
			"name":"Armature"
		}
	],
	"materials":[
		{
			"doubleSided":true,
			"name":"BaseMaterial",
			"pbrMetallicRoughness":{
				"baseColorTexture":{
					"index":0
				},
				"metallicFactor":0,
				"roughnessFactor":0.5
			}
		}
	],
	"meshes":[
		{
			"name":"Mesh",
			"primitives":[
				{
					"attributes":{
						"POSITION":0,
						"NORMAL":1,
						"TEXCOORD_0":2,
						"JOINTS_0":3,
						"WEIGHTS_0":4
					},
					"indices":5,
					"material":0
				}
			]
		},
		{
			"name":"Mesh",
			"primitives":[
				{
					"attributes":{
						"COLOR_0":7,
						"POSITION":8,
						"NORMAL":9,
						"TEXCOORD_0":10,
						"JOINTS_0":11,
						"WEIGHTS_0":12
					},
					"indices":13,
					"material":0
				}
			]
		},
		{
			"name":"Mesh",
			"primitives":[
				{
					"attributes":{
						"COLOR_0":14,
						"POSITION":15,
						"NORMAL":16,
						"TEXCOORD_0":17,
						"JOINTS_0":18,
						"WEIGHTS_0":19
					},
					"indices":20,
					"material":0
				}
			]
		},
		{
			"name":"Mesh",
			"primitives":[
				{
					"attributes":{
						"POSITION":21,
						"NORMAL":22,
						"TEXCOORD_0":23,
						"JOINTS_0":24,
						"WEIGHTS_0":25
					},
					"indices":5,
					"material":0
				}
			]
		}
	],
	"textures":[
		{
			"sampler":0,
			"source":0
		}
	],
	"images":[
		{
			"bufferView":6,
			"mimeType":"image/png",
			"name":"color-pallet"
		}
	],
	"skins":[
		{
			"inverseBindMatrices":6,
			"joints":[
				22,
				21,
				14,
				13,
				4,
				1,
				0,
				3,
				2,
				12,
				5,
				11,
				10,
				7,
				6,
				9,
				8,
				16,
				15,
				18,
				17,
				20,
				19
			],
			"name":"Armature"
		}
	],
	"accessors":[
		{
			"bufferView":0,
			"componentType":5126,
			"count":1596,
			"max":[
				0.5782628059387207,
				2.114344596862793,
				0.7785989046096802
			],
			"min":[
				-0.5782628655433655,
				0.4814363420009613,
				-0.7796251773834229
			],
			"type":"VEC3"
		},
		{
			"bufferView":1,
			"componentType":5126,
			"count":1596,
			"type":"VEC3"
		},
		{
			"bufferView":2,
			"componentType":5126,
			"count":1596,
			"type":"VEC2"
		},
		{
			"bufferView":3,
			"componentType":5121,
			"count":1596,
			"type":"VEC4"
		},
		{
			"bufferView":4,
			"componentType":5126,
			"count":1596,
			"type":"VEC4"
		},
		{
			"bufferView":5,
			"componentType":5123,
			"count":9216,
			"type":"SCALAR"
		},
		{
			"bufferView":7,
			"componentType":5126,
			"count":23,
			"type":"MAT4"
		},
		{
			"bufferView":8,
			"componentType":5123,
			"count":8121,
			"normalized":true,
			"type":"VEC4"
		},
		{
			"bufferView":9,
			"componentType":5126,
			"count":8121,
			"max":[
				0.20329678058624268,
				2.6520612239837646,
				-0.17579375207424164
			],
			"min":[
				-0.20329678058624268,
				2.2988193035125732,
				-0.3402111232280731
			],
			"type":"VEC3"
		},
		{
			"bufferView":10,
			"componentType":5126,
			"count":8121,
			"type":"VEC3"
		},
		{
			"bufferView":11,
			"componentType":5126,
			"count":8121,
			"type":"VEC2"
		},
		{
			"bufferView":12,
			"componentType":5121,
			"count":8121,
			"type":"VEC4"
		},
		{
			"bufferView":13,
			"componentType":5126,
			"count":8121,
			"type":"VEC4"
		},
		{
			"bufferView":14,
			"componentType":5123,
			"count":46080,
			"type":"SCALAR"
		},
		{
			"bufferView":15,
			"componentType":5123,
			"count":3177,
			"normalized":true,
			"type":"VEC4"
		},
		{
			"bufferView":16,
			"componentType":5126,
			"count":3177,
			"max":[
				0.986018180847168,
				1.4953526258468628,
				-0.06425300985574722
			],
			"min":[
				-0.986018180847168,
				1.1472480297088623,
				-0.3534592390060425
			],
			"type":"VEC3"
		},
		{
			"bufferView":17,
			"componentType":5126,
			"count":3177,
			"type":"VEC3"
		},
		{
			"bufferView":18,
			"componentType":5126,
			"count":3177,
			"type":"VEC2"
		},
		{
			"bufferView":19,
			"componentType":5121,
			"count":3177,
			"type":"VEC4"
		},
		{
			"bufferView":20,
			"componentType":5126,
			"count":3177,
			"type":"VEC4"
		},
		{
			"bufferView":21,
			"componentType":5123,
			"count":18432,
			"type":"SCALAR"
		},
		{
			"bufferView":22,
			"componentType":5126,
			"count":1596,
			"max":[
				0.2925684452056885,
				2.858560800552368,
				0.25701904296875
			],
			"min":[
				-0.2925684154033661,
				2.197059392929077,
				-0.3412703573703766
			],
			"type":"VEC3"
		},
		{
			"bufferView":23,
			"componentType":5126,
			"count":1596,
			"type":"VEC3"
		},
		{
			"bufferView":24,
			"componentType":5126,
			"count":1596,
			"type":"VEC2"
		},
		{
			"bufferView":25,
			"componentType":5121,
			"count":1596,
			"type":"VEC4"
		},
		{
			"bufferView":26,
			"componentType":5126,
			"count":1596,
			"type":"VEC4"
		}
	],
	"bufferViews":[
		{
			"buffer":0,
			"byteLength":19152,
			"byteOffset":0,
			"target":34962
		},
		{
			"buffer":0,
			"byteLength":19152,
			"byteOffset":19152,
			"target":34962
		},
		{
			"buffer":0,
			"byteLength":12768,
			"byteOffset":38304,
			"target":34962
		},
		{
			"buffer":0,
			"byteLength":6384,
			"byteOffset":51072,
			"target":34962
		},
		{
			"buffer":0,
			"byteLength":25536,
			"byteOffset":57456,
			"target":34962
		},
		{
			"buffer":0,
			"byteLength":18432,
			"byteOffset":82992,
			"target":34963
		},
		{
			"buffer":0,
			"byteLength":632,
			"byteOffset":101424
		},
		{
			"buffer":0,
			"byteLength":1472,
			"byteOffset":102056
		},
		{
			"buffer":0,
			"byteLength":64968,
			"byteOffset":103528,
			"target":34962
		},
		{
			"buffer":0,
			"byteLength":97452,
			"byteOffset":168496,
			"target":34962
		},
		{
			"buffer":0,
			"byteLength":97452,
			"byteOffset":265948,
			"target":34962
		},
		{
			"buffer":0,
			"byteLength":64968,
			"byteOffset":363400,
			"target":34962
		},
		{
			"buffer":0,
			"byteLength":32484,
			"byteOffset":428368,
			"target":34962
		},
		{
			"buffer":0,
			"byteLength":129936,
			"byteOffset":460852,
			"target":34962
		},
		{
			"buffer":0,
			"byteLength":92160,
			"byteOffset":590788,
			"target":34963
		},
		{
			"buffer":0,
			"byteLength":25416,
			"byteOffset":682948,
			"target":34962
		},
		{
			"buffer":0,
			"byteLength":38124,
			"byteOffset":708364,
			"target":34962
		},
		{
			"buffer":0,
			"byteLength":38124,
			"byteOffset":746488,
			"target":34962
		},
		{
			"buffer":0,
			"byteLength":25416,
			"byteOffset":784612,
			"target":34962
		},
		{
			"buffer":0,
			"byteLength":12708,
			"byteOffset":810028,
			"target":34962
		},
		{
			"buffer":0,
			"byteLength":50832,
			"byteOffset":822736,
			"target":34962
		},
		{
			"buffer":0,
			"byteLength":36864,
			"byteOffset":873568,
			"target":34963
		},
		{
			"buffer":0,
			"byteLength":19152,
			"byteOffset":910432,
			"target":34962
		},
		{
			"buffer":0,
			"byteLength":19152,
			"byteOffset":929584,
			"target":34962
		},
		{
			"buffer":0,
			"byteLength":12768,
			"byteOffset":948736,
			"target":34962
		},
		{
			"buffer":0,
			"byteLength":6384,
			"byteOffset":961504,
			"target":34962
		},
		{
			"buffer":0,
			"byteLength":25536,
			"byteOffset":967888,
			"target":34962
		}
	],
	"samplers":[
		{
			"magFilter":9728,
			"minFilter":9984
		}
	],
	"buffers":[
		{
			"byteLength":993424,
			"uri":"data:application/octet-stream;base64,"
		}
	]
}
